#N canvas 280 102 985 644 12;
#X obj 44 223 list prepend;
#X obj 44 245 list trim;
#X msg 28 71 devices;
#X msg 157 90 close;
#X msg 100 68 open 2;
#X floatatom 52 315 5 0 0 0 - - -;
#X floatatom 107 321 5 0 0 0 - - -;
#X obj 33 33 loadbang;
#X msg 101 40 open 1;
#X floatatom 162 315 5 0 0 0 - - -;
#X floatatom 215 317 5 0 0 0 - - -;
#X obj 53 294 route analog0 analog1 analog2 analog3 digital0;
#X floatatom 272 319 5 0 0 0 - - -;
#X obj 44 201 serial_print any;
#X obj 44 179 comport 0 9600;
#X msg 111 102 open 3;
#X obj 76 383 print analog0;
#X obj 155 422 print analog1;
#X connect 0 0 1 0;
#X connect 1 0 11 0;
#X connect 2 0 14 0;
#X connect 3 0 14 0;
#X connect 4 0 14 0;
#X connect 5 0 16 0;
#X connect 6 0 17 0;
#X connect 7 0 2 0;
#X connect 8 0 14 0;
#X connect 11 0 5 0;
#X connect 11 1 6 0;
#X connect 11 2 9 0;
#X connect 11 3 10 0;
#X connect 11 4 12 0;
#X connect 13 0 0 0;
#X connect 13 1 0 1;
#X connect 14 0 13 0;
#X connect 15 0 14 0;
